<svg width="12" height="10" viewBox="0 0 12 10" fill="none" xmlns="http://www.w3.org/2000/svg">
<path d="M12.0007 5.00013C11.9966 4.56171 11.8199 4.14255 11.509 3.83347L7.93398 0.25014C7.77785 0.0949307 7.56664 0.0078125 7.34648 0.0078125C7.12633 0.0078125 6.91512 0.0949307 6.75898 0.25014C6.68088 0.327609 6.61888 0.419776 6.57657 0.521325C6.53427 0.622875 6.51249 0.731796 6.51249 0.841806C6.51249 0.951815 6.53427 1.06074 6.57657 1.16229C6.61888 1.26383 6.68088 1.356 6.75898 1.43347L9.50065 4.1668H1.16732C0.946304 4.1668 0.734343 4.2546 0.578062 4.41088C0.421782 4.56716 0.333984 4.77912 0.333984 5.00013C0.333984 5.22115 0.421782 5.43311 0.578062 5.58939C0.734343 5.74567 0.946304 5.83347 1.16732 5.83347H9.50065L6.75898 8.57513C6.60206 8.73095 6.51347 8.94271 6.51269 9.16385C6.51191 9.38499 6.599 9.59738 6.75482 9.7543C6.91063 9.91122 7.1224 9.99981 7.34354 10.0006C7.56467 10.0014 7.77706 9.91428 7.93398 9.75846L11.509 6.17513C11.822 5.86401 11.9988 5.44145 12.0007 5.00013Z" fill="#232E3F"/>
</svg>
