<svg width="20" height="20" viewBox="0 0 20 20" fill="none" xmlns="http://www.w3.org/2000/svg">
<g clip-path="url(#clip0_46_14166)">
<path d="M19.999 9.37297C19.8785 7.42299 19.1899 5.5509 18.0183 3.98749C16.8467 2.42409 15.2432 1.23771 13.4054 0.574632C11.5677 -0.0884492 9.57607 -0.199252 7.67612 0.255883C5.77617 0.711018 4.05094 1.71219 2.71311 3.13599C1.37529 4.55978 0.483355 6.34394 0.147272 8.26852C-0.18881 10.1931 0.0456512 12.174 0.821751 13.9669C1.59785 15.7598 2.88166 17.2865 4.51491 18.3586C6.14816 19.4307 8.05945 20.0015 10.0132 20.0005H15.8323C16.9371 19.9994 17.9962 19.56 18.7774 18.7789C19.5585 17.9977 19.9979 16.9385 19.999 15.8338V9.37297ZM18.3323 15.8338C18.3323 16.4968 18.0689 17.1327 17.6001 17.6016C17.1312 18.0704 16.4954 18.3338 15.8323 18.3338H10.0132C8.83727 18.3333 7.67469 18.0849 6.60123 17.6049C5.52778 17.1249 4.56755 16.424 3.78315 15.548C2.99497 14.6724 2.4031 13.6384 2.04723 12.5153C1.69137 11.3922 1.57974 10.206 1.71982 9.0363C1.94102 7.19125 2.76998 5.47229 4.07602 4.15041C5.38207 2.82852 7.09091 1.97889 8.93315 1.73547C9.29252 1.69043 9.65431 1.66761 10.0165 1.66714C11.9585 1.66184 13.8405 2.34039 15.3323 3.5838C16.2036 4.30792 16.9187 5.20143 17.4344 6.21016C17.9501 7.21889 18.2556 8.32184 18.3323 9.45214V15.8338Z" fill="#374957"/>
<path d="M6.66732 7.49967H10.0007C10.2217 7.49967 10.4336 7.41187 10.5899 7.25559C10.7462 7.09931 10.834 6.88735 10.834 6.66634C10.834 6.44533 10.7462 6.23337 10.5899 6.07709C10.4336 5.92081 10.2217 5.83301 10.0007 5.83301H6.66732C6.4463 5.83301 6.23434 5.92081 6.07806 6.07709C5.92178 6.23337 5.83398 6.44533 5.83398 6.66634C5.83398 6.88735 5.92178 7.09931 6.07806 7.25559C6.23434 7.41187 6.4463 7.49967 6.66732 7.49967Z" fill="#374957"/>
<path d="M13.334 9.16699H6.66732C6.4463 9.16699 6.23434 9.25479 6.07806 9.41107C5.92178 9.56735 5.83398 9.77932 5.83398 10.0003C5.83398 10.2213 5.92178 10.4333 6.07806 10.5896C6.23434 10.7459 6.4463 10.8337 6.66732 10.8337H13.334C13.555 10.8337 13.767 10.7459 13.9232 10.5896C14.0795 10.4333 14.1673 10.2213 14.1673 10.0003C14.1673 9.77932 14.0795 9.56735 13.9232 9.41107C13.767 9.25479 13.555 9.16699 13.334 9.16699Z" fill="#374957"/>
<path d="M13.334 12.5H6.66732C6.4463 12.5 6.23434 12.5878 6.07806 12.7441C5.92178 12.9004 5.83398 13.1123 5.83398 13.3333C5.83398 13.5544 5.92178 13.7663 6.07806 13.9226C6.23434 14.0789 6.4463 14.1667 6.66732 14.1667H13.334C13.555 14.1667 13.767 14.0789 13.9232 13.9226C14.0795 13.7663 14.1673 13.5544 14.1673 13.3333C14.1673 13.1123 14.0795 12.9004 13.9232 12.7441C13.767 12.5878 13.555 12.5 13.334 12.5Z" fill="#374957"/>
</g>
<defs>
<clipPath id="clip0_46_14166">
<rect width="20" height="20" fill="white"/>
</clipPath>
</defs>
</svg>
