<svg width="16" height="16" viewBox="0 0 16 16" fill="none" xmlns="http://www.w3.org/2000/svg">
<path d="M9.46683 1.91675C8.64908 1.91675 7.86482 2.2416 7.28658 2.81984C6.70835 3.39807 6.3835 4.18233 6.3835 5.00008V6.71675H4.7335C4.65083 6.71675 4.5835 6.78341 4.5835 6.86675V9.13341C4.5835 9.21608 4.65016 9.28341 4.7335 9.28341H6.3835V13.9334C6.3835 14.0161 6.45016 14.0834 6.5335 14.0834H8.80016C8.88283 14.0834 8.95016 14.0167 8.95016 13.9334V9.28341H10.6148C10.6835 9.28341 10.7435 9.23675 10.7602 9.17008L11.3268 6.90341C11.3324 6.8813 11.3329 6.8582 11.3282 6.83588C11.3235 6.81355 11.3138 6.7926 11.2997 6.7746C11.2857 6.7566 11.2678 6.74203 11.2473 6.73201C11.2268 6.72199 11.2043 6.71677 11.1815 6.71675H8.95016V5.00008C8.95016 4.93223 8.96353 4.86505 8.98949 4.80236C9.01546 4.73968 9.05351 4.68272 9.10149 4.63474C9.14947 4.58677 9.20643 4.54871 9.26911 4.52274C9.33179 4.49678 9.39898 4.48341 9.46683 4.48341H11.2002C11.2828 4.48341 11.3502 4.41675 11.3502 4.33341V2.06675C11.3502 1.98408 11.2835 1.91675 11.2002 1.91675H9.46683Z" fill="#232E3F"/>
</svg>
