<svg width="36" height="36" viewBox="0 0 36 36" fill="none" xmlns="http://www.w3.org/2000/svg">
<rect x="2" y="2" width="32" height="32" rx="16" fill="#B5DCF3"/>
<rect x="2" y="2" width="32" height="32" rx="16" stroke="#CEE8F7" stroke-width="4"/>
<path d="M18.667 11.3335H14.0003C13.6467 11.3335 13.3076 11.474 13.0575 11.724C12.8075 11.9741 12.667 12.3132 12.667 12.6668V23.3335C12.667 23.6871 12.8075 24.0263 13.0575 24.2763C13.3076 24.5264 13.6467 24.6668 14.0003 24.6668H22.0003C22.3539 24.6668 22.6931 24.5264 22.9431 24.2763C23.1932 24.0263 23.3337 23.6871 23.3337 23.3335V16.0002M18.667 11.3335L23.3337 16.0002M18.667 11.3335V16.0002H23.3337" stroke="#1B4137" stroke-width="1.33333" stroke-linecap="round" stroke-linejoin="round"/>
</svg>
