<svg width="22" height="21" viewBox="0 0 22 21" fill="none" xmlns="http://www.w3.org/2000/svg">
<g clip-path="url(#clip0_176_24361)">
<path d="M12.5635 20.558C12.3832 20.5561 12.2084 20.4958 12.0653 20.3861L8.75855 17.851C8.65588 17.7723 8.57294 17.6708 8.51631 17.5545C8.45968 17.4382 8.4309 17.3103 8.43227 17.1809L8.48169 12.4978L2.70476 5.85899C2.2945 5.3862 2.0295 4.80498 1.94162 4.1852C1.85374 3.56542 1.94672 2.93345 2.20938 2.36524C2.47204 1.79704 2.8932 1.31677 3.42225 0.982177C3.9513 0.64758 4.56573 0.472889 5.19168 0.4791L17.0244 0.603978C17.6502 0.611318 18.2607 0.799235 18.7823 1.14515C19.304 1.49106 19.7147 1.98026 19.965 2.55394C20.2153 3.12763 20.2947 3.76139 20.1935 4.37909C20.0923 4.99678 19.8149 5.57212 19.3947 6.03596L13.4814 12.5506L13.4056 19.7335C13.4033 19.9545 13.3132 20.1655 13.1553 20.3202C12.9974 20.4748 12.7845 20.5603 12.5635 20.558ZM10.1032 16.7818L11.7566 18.0494L11.8182 12.2163C11.8205 12.0123 11.8976 11.8162 12.0348 11.6653L18.1631 4.9154C18.3674 4.68928 18.5022 4.40898 18.5512 4.10816C18.6001 3.80734 18.5612 3.49878 18.4391 3.21952C18.317 2.94026 18.1169 2.70217 17.8629 2.53384C17.6088 2.36551 17.3115 2.27409 17.0068 2.27055L5.17409 2.14567C4.86948 2.14292 4.57054 2.2281 4.31312 2.39099C4.05571 2.55388 3.85075 2.78757 3.72282 3.06404C3.5949 3.3405 3.54944 3.64799 3.5919 3.94964C3.63436 4.2513 3.76294 4.53429 3.96222 4.7647L9.94746 11.6432C10.0812 11.7972 10.1538 11.9948 10.1516 12.1988L10.1032 16.7818Z" fill="#1B4137"/>
</g>
<defs>
<clipPath id="clip0_176_24361">
<rect width="20" height="20" fill="white" transform="translate(1.10852 0.436035) rotate(0.604657)"/>
</clipPath>
</defs>
</svg>
