<svg width="16" height="16" viewBox="0 0 16 16" fill="none" xmlns="http://www.w3.org/2000/svg">
<path d="M5.20016 1.3335H10.8002C12.9335 1.3335 14.6668 3.06683 14.6668 5.20016V10.8002C14.6668 11.8257 14.2594 12.8092 13.5343 13.5343C12.8092 14.2594 11.8257 14.6668 10.8002 14.6668H5.20016C3.06683 14.6668 1.3335 12.9335 1.3335 10.8002V5.20016C1.3335 4.17466 1.74088 3.19116 2.46602 2.46602C3.19116 1.74088 4.17466 1.3335 5.20016 1.3335ZM5.06683 2.66683C4.43031 2.66683 3.81986 2.91969 3.36977 3.36977C2.91969 3.81986 2.66683 4.43031 2.66683 5.06683V10.9335C2.66683 12.2602 3.74016 13.3335 5.06683 13.3335H10.9335C11.57 13.3335 12.1805 13.0806 12.6306 12.6306C13.0806 12.1805 13.3335 11.57 13.3335 10.9335V5.06683C13.3335 3.74016 12.2602 2.66683 10.9335 2.66683H5.06683ZM11.5002 3.66683C11.7212 3.66683 11.9331 3.75463 12.0894 3.91091C12.2457 4.06719 12.3335 4.27915 12.3335 4.50016C12.3335 4.72118 12.2457 4.93314 12.0894 5.08942C11.9331 5.2457 11.7212 5.3335 11.5002 5.3335C11.2791 5.3335 11.0672 5.2457 10.9109 5.08942C10.7546 4.93314 10.6668 4.72118 10.6668 4.50016C10.6668 4.27915 10.7546 4.06719 10.9109 3.91091C11.0672 3.75463 11.2791 3.66683 11.5002 3.66683ZM8.00016 4.66683C8.88422 4.66683 9.73206 5.01802 10.3572 5.64314C10.9823 6.26826 11.3335 7.11611 11.3335 8.00016C11.3335 8.88422 10.9823 9.73206 10.3572 10.3572C9.73206 10.9823 8.88422 11.3335 8.00016 11.3335C7.11611 11.3335 6.26826 10.9823 5.64314 10.3572C5.01802 9.73206 4.66683 8.88422 4.66683 8.00016C4.66683 7.11611 5.01802 6.26826 5.64314 5.64314C6.26826 5.01802 7.11611 4.66683 8.00016 4.66683ZM8.00016 6.00016C7.46973 6.00016 6.96102 6.21088 6.58595 6.58595C6.21088 6.96102 6.00016 7.46973 6.00016 8.00016C6.00016 8.5306 6.21088 9.0393 6.58595 9.41438C6.96102 9.78945 7.46973 10.0002 8.00016 10.0002C8.5306 10.0002 9.0393 9.78945 9.41438 9.41438C9.78945 9.0393 10.0002 8.5306 10.0002 8.00016C10.0002 7.46973 9.78945 6.96102 9.41438 6.58595C9.0393 6.21088 8.5306 6.00016 8.00016 6.00016Z" fill="#232E3F"/>
</svg>
