<svg width="16" height="16" viewBox="0 0 16 16" fill="none" xmlns="http://www.w3.org/2000/svg">
<path d="M4.62712 3.33351C4.62694 3.68713 4.48629 4.0262 4.23612 4.27613C3.98595 4.52605 3.64674 4.66636 3.29312 4.66618C2.93949 4.666 2.60043 4.52536 2.3505 4.27518C2.10058 4.02501 1.96027 3.6858 1.96045 3.33218C1.96063 2.97856 2.10127 2.63949 2.35145 2.38956C2.60162 2.13964 2.94083 1.99934 3.29445 1.99951C3.64807 1.99969 3.98714 2.14033 4.23706 2.39051C4.48699 2.64068 4.62729 2.97989 4.62712 3.33351ZM4.66712 5.65351H2.00045V14.0002H4.66712V5.65351ZM8.88045 5.65351H6.22712V14.0002H8.85378V9.62018C8.85378 7.18018 12.0338 6.95351 12.0338 9.62018V14.0002H14.6671V8.71351C14.6671 4.60018 9.96045 4.75351 8.85378 6.77351L8.88045 5.65351Z" fill="#232E3F"/>
</svg>
