<svg width="126" height="63" viewBox="0 0 126 63" fill="none" xmlns="http://www.w3.org/2000/svg">
<path d="M47.3546 23V10.1862H55.2808V11.4493H48.8922V15.9158H54.7317V17.1606H48.8922V21.7369H55.2808V23H47.3546ZM61.4393 23.2197C60.4996 23.2197 59.682 23.0488 58.9864 22.7071C58.2908 22.3654 57.7538 21.8895 57.3755 21.2793C56.9972 20.6691 56.808 19.9613 56.808 19.1559H58.4189C58.4189 19.6562 58.5348 20.12 58.7667 20.5471C58.9986 20.962 59.3342 21.2976 59.7735 21.5539C60.225 21.7979 60.7803 21.92 61.4393 21.92C62.0129 21.92 62.501 21.8285 62.9037 21.6454C63.3186 21.4501 63.6298 21.1878 63.8373 20.8583C64.057 20.5288 64.1668 20.1566 64.1668 19.7416C64.1668 19.2413 64.057 18.8386 63.8373 18.5335C63.6176 18.2162 63.3186 17.9599 62.9403 17.7647C62.5742 17.5572 62.1532 17.3802 61.6773 17.2338C61.2013 17.0874 60.701 16.9226 60.1762 16.7396C59.1755 16.3979 58.4372 15.9768 57.9613 15.4765C57.4853 14.9639 57.2474 14.2988 57.2474 13.4812C57.2474 12.7856 57.406 12.1754 57.7233 11.6507C58.0528 11.1259 58.5165 10.7171 59.1145 10.4242C59.7247 10.1191 60.4447 9.96657 61.2745 9.96657C62.0922 9.96657 62.8 10.1191 63.398 10.4242C64.0081 10.7293 64.4841 11.1503 64.8258 11.6873C65.1675 12.212 65.3383 12.8222 65.3383 13.5178H63.7275C63.7275 13.1639 63.6359 12.8161 63.4529 12.4744C63.2698 12.1327 62.9892 11.852 62.6108 11.6324C62.2447 11.4005 61.781 11.2846 61.2196 11.2846C60.7559 11.2724 60.341 11.3517 59.9749 11.5225C59.621 11.6812 59.3403 11.913 59.1328 12.2181C58.9376 12.5232 58.8399 12.8954 58.8399 13.3348C58.8399 13.7497 58.9254 14.0853 59.0962 14.3416C59.2793 14.5978 59.5355 14.8175 59.865 15.0006C60.2067 15.1714 60.6034 15.33 61.0549 15.4765C61.5064 15.6229 62.0068 15.7877 62.5559 15.9707C63.1783 16.1782 63.7275 16.4345 64.2034 16.7396C64.6916 17.0324 65.0699 17.4108 65.3383 17.8745C65.619 18.3382 65.7594 18.9301 65.7594 19.6501C65.7594 20.2603 65.5946 20.84 65.2651 21.3891C64.9478 21.9261 64.4719 22.3654 63.8373 22.7071C63.2027 23.0488 62.4034 23.2197 61.4393 23.2197ZM73.3396 23.2197C72.1071 23.2197 71.021 22.9451 70.0813 22.3959C69.1416 21.8346 68.4033 21.0596 67.8663 20.0711C67.3416 19.0704 67.0792 17.9111 67.0792 16.5931C67.0792 15.2873 67.3416 14.1402 67.8663 13.1517C68.4033 12.151 69.1416 11.37 70.0813 10.8086C71.021 10.2473 72.1071 9.96657 73.3396 9.96657C74.5966 9.96657 75.6949 10.2473 76.6346 10.8086C77.5743 11.37 78.3004 12.151 78.813 13.1517C79.3377 14.1402 79.6001 15.2873 79.6001 16.5931C79.6001 17.9111 79.3377 19.0704 78.813 20.0711C78.3004 21.0596 77.5743 21.8346 76.6346 22.3959C75.6949 22.9451 74.5966 23.2197 73.3396 23.2197ZM73.3396 21.8651C74.2793 21.8651 75.097 21.6576 75.7926 21.2427C76.5004 20.8156 77.0495 20.2115 77.4401 19.4305C77.8306 18.6372 78.0258 17.6914 78.0258 16.5931C78.0258 15.4948 77.8306 14.5551 77.4401 13.7741C77.0495 12.9809 76.5004 12.3768 75.7926 11.9619C75.097 11.5469 74.2793 11.3395 73.3396 11.3395C72.4122 11.3395 71.5945 11.5469 70.8867 11.9619C70.1911 12.3768 69.642 12.9809 69.2392 13.7741C68.8487 14.5551 68.6535 15.4948 68.6535 16.5931C68.6535 17.6914 68.8487 18.6372 69.2392 19.4305C69.642 20.2115 70.1911 20.8156 70.8867 21.2427C71.5945 21.6576 72.4122 21.8651 73.3396 21.8651Z" fill="#475467"/>
<path d="M21.8828 46V25.4065H24.7071L35.2981 42.352H35.3275V25.4065H37.7987V46H34.9745L24.4129 29.0545H24.3541V46H21.8828ZM40.893 46V31.408H43.3643V46H40.893ZM42.1286 28.2895C41.6383 28.2895 41.2264 28.1326 40.893 27.8188C40.5792 27.4854 40.4223 27.0637 40.4223 26.5538C40.4223 26.0831 40.5792 25.6908 40.893 25.377C41.2264 25.0632 41.6383 24.9063 42.1286 24.9063C42.5994 24.9063 43.0014 25.0632 43.3348 25.377C43.6683 25.6908 43.835 26.0929 43.835 26.5832C43.835 27.0539 43.6683 27.456 43.3348 27.7894C43.0014 28.1228 42.5994 28.2895 42.1286 28.2895ZM52.6493 52.6194C51.3352 52.6194 50.1682 52.4428 49.1484 52.0898C48.1285 51.7564 47.3342 51.2465 46.7654 50.56C46.1966 49.8735 45.9122 49.0302 45.9122 48.0299C45.9122 47.5985 46.0005 47.1375 46.177 46.6472C46.3731 46.1569 46.6968 45.6764 47.1479 45.2057C47.6186 44.735 48.2756 44.3035 49.119 43.9112L50.7664 44.9115C49.7662 45.343 49.1091 45.8137 48.7953 46.3236C48.4815 46.8532 48.3246 47.3631 48.3246 47.8534C48.3246 48.4614 48.5011 48.9714 48.8542 49.3832C49.2072 49.7951 49.7073 50.1089 50.3546 50.3246C51.0214 50.5404 51.7863 50.6483 52.6493 50.6483C53.5122 50.6483 54.2379 50.5208 54.8263 50.2658C55.4343 50.0305 55.8952 49.697 56.209 49.2655C56.5228 48.8537 56.6797 48.3634 56.6797 47.7946C56.6797 47.167 56.4248 46.6374 55.9148 46.2059C55.4245 45.7745 54.4831 45.5195 53.0906 45.441C51.9334 45.3626 50.9626 45.2547 50.1781 45.1174C49.4131 44.9801 48.7757 44.8232 48.2658 44.6467C47.7559 44.4506 47.3244 44.2348 46.9713 43.9995C46.6379 43.7641 46.3339 43.519 46.0593 43.264V42.5874L48.913 39.7337L50.7664 40.4692L48.1187 43.1757L48.4423 42.1755C48.6384 42.3128 48.8346 42.4501 49.0307 42.5874C49.2464 42.705 49.521 42.8129 49.8544 42.911C50.2075 43.009 50.6782 43.1071 51.2666 43.2052C51.8746 43.2836 52.6689 43.3621 53.6495 43.4405C54.9636 43.5386 56.0227 43.7641 56.8268 44.1172C57.631 44.4702 58.2095 44.9507 58.5626 45.5587C58.9352 46.1667 59.1215 46.8826 59.1215 47.7063C59.1215 48.5105 58.8862 49.2852 58.4155 50.0305C57.9644 50.7954 57.2583 51.4132 56.2973 51.8839C55.3559 52.3742 54.1399 52.6194 52.6493 52.6194ZM52.6199 41.4106C51.3842 41.4106 50.335 41.185 49.472 40.7339C48.609 40.2632 47.952 39.6356 47.5009 38.8511C47.0498 38.0666 46.8242 37.1938 46.8242 36.2328C46.8242 35.2717 47.0498 34.4088 47.5009 33.6439C47.952 32.8594 48.609 32.2317 49.472 31.761C50.335 31.2903 51.3842 31.055 52.6199 31.055C53.8555 31.055 54.9048 31.2903 55.7677 31.761C56.6307 32.2317 57.2877 32.8594 57.7388 33.6439C58.1899 34.4088 58.4155 35.2717 58.4155 36.2328C58.4155 37.1938 58.1899 38.0666 57.7388 38.8511C57.2877 39.6356 56.6307 40.2632 55.7677 40.7339C54.9048 41.185 53.8555 41.4106 52.6199 41.4106ZM52.6199 39.4395C53.6593 39.4395 54.4831 39.1649 55.0911 38.6157C55.7187 38.0666 56.0325 37.2723 56.0325 36.2328C56.0325 35.1933 55.7187 34.4088 55.0911 33.8792C54.4831 33.3301 53.6593 33.0555 52.6199 33.0555C51.5804 33.0555 50.7468 33.3301 50.1192 33.8792C49.4916 34.4088 49.1778 35.1933 49.1778 36.2328C49.1778 37.2723 49.4916 38.0666 50.1192 38.6157C50.7468 39.1649 51.5804 39.4395 52.6199 39.4395ZM54.9734 33.4085L54.2379 31.408H60.2983V33.0849L54.9734 33.4085ZM68.4493 46.353C67.0568 46.353 65.8212 46.0392 64.7425 45.4116C63.6638 44.7644 62.8106 43.872 62.183 42.7345C61.575 41.5773 61.271 40.2338 61.271 38.704C61.271 37.1546 61.575 35.8111 62.183 34.6735C62.791 33.536 63.6343 32.6534 64.7131 32.0258C65.8114 31.3786 67.0764 31.055 68.5081 31.055C69.9399 31.055 71.1657 31.3786 72.1856 32.0258C73.2054 32.6534 73.99 33.487 74.5391 34.5265C75.0883 35.5463 75.3629 36.6643 75.3629 37.8803C75.3629 38.0764 75.3629 38.2921 75.3629 38.5275C75.3629 38.7432 75.3531 38.9884 75.3334 39.263H63.1244V37.3507H72.9211C72.8622 36.017 72.4111 34.9775 71.5678 34.2323C70.744 33.4674 69.7045 33.0849 68.4493 33.0849C67.606 33.0849 66.8214 33.2712 66.0958 33.6439C65.3701 34.0165 64.7817 34.5657 64.3306 35.2914C63.8991 36.017 63.6834 36.929 63.6834 38.0274V38.8511C63.6834 40.0475 63.9089 41.0477 64.36 41.8519C64.8111 42.656 65.3995 43.264 66.1252 43.6759C66.8705 44.0681 67.6452 44.2643 68.4493 44.2643C69.4692 44.2643 70.3223 44.0289 71.0088 43.5582C71.6952 43.0875 72.1954 42.4501 72.5092 41.6459H74.951C74.696 42.5481 74.2743 43.3523 73.686 44.0583C73.0976 44.7644 72.3621 45.3234 71.4795 45.7352C70.6165 46.1471 69.6065 46.353 68.4493 46.353ZM77.5314 46V31.408H79.7673L79.9732 34.3499H80.0026C80.3753 33.5458 80.8067 32.9084 81.2971 32.4377C81.807 31.9474 82.3954 31.5943 83.0622 31.3786C83.7487 31.1628 84.543 31.055 85.4452 31.055V33.6439H84.798C84.0919 33.6439 83.4447 33.7321 82.8563 33.9086C82.2679 34.0852 81.758 34.3695 81.3265 34.7618C80.9146 35.1345 80.591 35.6346 80.3556 36.2622C80.1203 36.8898 80.0026 37.6645 80.0026 38.5863V46H77.5314ZM87.4664 46V31.408H89.9376V46H87.4664ZM88.702 28.2895C88.2117 28.2895 87.7998 28.1326 87.4664 27.8188C87.1526 27.4854 86.9957 27.0637 86.9957 26.5538C86.9957 26.0831 87.1526 25.6908 87.4664 25.377C87.7998 25.0632 88.2117 24.9063 88.702 24.9063C89.1727 24.9063 89.5748 25.0632 89.9082 25.377C90.2416 25.6908 90.4083 26.0929 90.4083 26.5832C90.4083 27.0539 90.2416 27.456 89.9082 27.7894C89.5748 28.1228 89.1727 28.2895 88.702 28.2895ZM98.0164 46.353C96.8201 46.353 95.8198 46.1471 95.0157 45.7352C94.2312 45.3234 93.6428 44.7742 93.2505 44.0877C92.8583 43.4013 92.6621 42.656 92.6621 41.8519C92.6621 40.8516 92.9171 40.0083 93.427 39.3218C93.9566 38.6354 94.6921 38.1156 95.6335 37.7626C96.5945 37.3899 97.7223 37.2036 99.0167 37.2036H102.959C102.959 36.2818 102.812 35.5169 102.518 34.9089C102.223 34.3009 101.802 33.8498 101.253 33.5556C100.703 33.2418 100.046 33.0849 99.2815 33.0849C98.3204 33.0849 97.4869 33.3301 96.7808 33.8204C96.0748 34.2911 95.6433 35.007 95.4864 35.968H92.9563C93.074 34.9089 93.427 34.0165 94.0154 33.2908C94.6234 32.5652 95.3883 32.016 96.3101 31.6434C97.2515 31.2511 98.242 31.055 99.2815 31.055C100.654 31.055 101.792 31.3099 102.694 31.8199C103.616 32.3102 104.302 33.0065 104.753 33.9086C105.205 34.7912 105.43 35.8307 105.43 37.0271V46H103.283L103.106 43.4111H103.077C102.841 43.8426 102.557 44.2446 102.223 44.6173C101.91 44.9703 101.547 45.2743 101.135 45.5293C100.723 45.7843 100.252 45.9804 99.7228 46.1177C99.2128 46.2746 98.6441 46.353 98.0164 46.353ZM98.4283 44.2643C99.154 44.2643 99.7914 44.127 100.341 43.8524C100.909 43.5582 101.39 43.1659 101.782 42.6756C102.174 42.1853 102.469 41.6361 102.665 41.0281C102.861 40.4201 102.959 39.7925 102.959 39.1453V39.1159H99.2226C98.2616 39.1159 97.4869 39.2335 96.8985 39.4689C96.3101 39.6846 95.8884 39.9886 95.6335 40.3809C95.3785 40.7732 95.251 41.2243 95.251 41.7342C95.251 42.2441 95.3687 42.6952 95.6041 43.0875C95.859 43.4601 96.2219 43.7543 96.6926 43.9701C97.1829 44.1662 97.7615 44.2643 98.4283 44.2643Z" fill="#1B4137"/>
</svg>
