<svg width="16" height="16" viewBox="0 0 16 16" fill="none" xmlns="http://www.w3.org/2000/svg">
<g clip-path="url(#clip0_4_30541)">
<path d="M12.387 1.42683L8.21034 0.0341605C8.07359 -0.0113868 7.92576 -0.0113868 7.78901 0.0341605L3.61234 1.42683C2.94828 1.64741 2.37062 2.07167 1.96144 2.6393C1.55226 3.20694 1.33237 3.88909 1.33301 4.58883V8.00016C1.33301 13.0422 7.46634 15.8268 7.72901 15.9428C7.81422 15.9807 7.90643 16.0002 7.99968 16.0002C8.09292 16.0002 8.18513 15.9807 8.27034 15.9428C8.53301 15.8268 14.6663 13.0422 14.6663 8.00016V4.58883C14.667 3.88909 14.4471 3.20694 14.0379 2.6393C13.6287 2.07167 13.0511 1.64741 12.387 1.42683ZM13.333 8.00016C13.333 11.6368 9.12034 14.0222 7.99968 14.5928C6.87768 14.0242 2.66634 11.6462 2.66634 8.00016V4.58883C2.66638 4.16901 2.79853 3.75985 3.04405 3.41932C3.28958 3.07879 3.63604 2.82416 4.03434 2.69149L7.99968 1.36949L11.965 2.69149C12.3633 2.82416 12.7098 3.07879 12.9553 3.41932C13.2008 3.75985 13.333 4.16901 13.333 4.58883V8.00016Z" fill="#12B76A"/>
<path d="M10.1995 5.53338L7.40754 8.33339L5.91154 6.77339C5.8515 6.70774 5.77893 6.65478 5.69811 6.61762C5.61729 6.58045 5.52985 6.55984 5.44093 6.55699C5.35202 6.55415 5.26344 6.56912 5.18041 6.60104C5.09737 6.63296 5.02156 6.68117 4.95745 6.74283C4.89334 6.8045 4.84221 6.87838 4.80709 6.96011C4.77197 7.04184 4.75356 7.12977 4.75295 7.21872C4.75233 7.30768 4.76953 7.39586 4.80352 7.47806C4.83751 7.56027 4.88761 7.63484 4.95087 7.69739L6.4882 9.29739C6.60285 9.42123 6.74143 9.52052 6.89555 9.58928C7.04967 9.65803 7.21613 9.69481 7.38487 9.69739H7.40687C7.57224 9.69794 7.73607 9.66563 7.88885 9.60234C8.04164 9.53906 8.18033 9.44605 8.29687 9.32873L11.1449 6.48072C11.2071 6.41865 11.2564 6.34493 11.2902 6.26378C11.3239 6.18263 11.3413 6.09563 11.3414 6.00776C11.3415 5.91988 11.3242 5.83285 11.2907 5.75163C11.2572 5.67041 11.2079 5.59659 11.1459 5.53438C11.0838 5.47218 11.0101 5.42281 10.9289 5.3891C10.8478 5.35538 10.7608 5.33798 10.6729 5.33789C10.585 5.3378 10.498 5.35501 10.4168 5.38856C10.3356 5.4221 10.2617 5.47131 10.1995 5.53338Z" fill="#12B76A"/>
</g>
<defs>
<clipPath id="clip0_4_30541">
<rect width="16" height="16" fill="white"/>
</clipPath>
</defs>
</svg>
